<svg width="401" height="379" viewBox="0 0 401 379" fill="none" xmlns="http://www.w3.org/2000/svg">
<g clip-path="url(#clip0_20_153)">
<path d="M398.791 106.911C398.791 106.911 398.791 106.828 398.833 106.786C398.833 106.786 398.833 106.703 398.833 106.661V106.578C398.833 106.537 398.833 106.495 398.833 106.453C398.833 106.453 398.833 106.37 398.833 106.328C398.833 106.328 398.833 106.245 398.833 106.203C398.833 106.162 398.833 106.12 398.833 106.078C398.833 106.037 398.833 105.995 398.833 105.953C398.833 105.953 398.833 105.87 398.791 105.829C398.791 105.829 398.791 105.745 398.749 105.745C398.749 105.745 398.708 105.704 398.708 105.662C398.708 105.662 398.666 105.579 398.624 105.579L326.602 24.5726C326.602 24.5726 326.56 24.5726 326.56 24.531C326.56 24.531 326.519 24.4893 326.477 24.4477C326.477 24.4477 326.435 24.4477 326.394 24.406C326.394 24.406 326.352 24.3644 326.31 24.3644C326.269 24.3644 326.227 24.3644 326.185 24.3227C326.185 24.3227 326.143 24.3227 326.102 24.3227L258.622 5.6226L249.661 2.16579C249.328 2.04084 249.036 2.08249 248.744 2.16579C236.699 7.66337 219.11 10.8286 200.479 10.8286C181.848 10.8286 164.26 7.66337 152.214 2.16579C151.922 2.04084 151.589 1.99919 151.297 2.16579L142.336 5.6226L74.9402 24.2394C74.9402 24.2394 74.8985 24.2394 74.8568 24.2394C74.8151 24.2394 74.7734 24.2394 74.7318 24.2811C74.7318 24.2811 74.6484 24.2811 74.6484 24.3227C74.6484 24.3227 74.6067 24.3227 74.565 24.3644C74.565 24.3644 74.5234 24.406 74.4817 24.4477C74.4817 24.4477 74.44 24.4893 74.3983 24.531L2.37588 105.62C2.37588 105.62 2.3342 105.704 2.29252 105.704C2.29252 105.704 2.29252 105.745 2.25084 105.787C2.25084 105.787 2.25084 105.87 2.20916 105.912C2.20916 105.912 2.20916 105.995 2.16748 105.995V106.078C2.16748 106.078 2.16748 106.162 2.16748 106.203C2.16748 106.203 2.16748 106.287 2.16748 106.328C2.16748 106.328 2.16748 106.412 2.16748 106.453C2.16748 106.495 2.16748 106.537 2.16748 106.578C2.16748 106.62 2.16748 106.661 2.16748 106.703V106.786C2.16748 106.786 2.16748 106.87 2.20916 106.911C2.20916 106.911 2.20916 106.953 2.25084 106.995C2.25084 106.995 2.29252 107.078 2.3342 107.12L46.723 161.554C46.8064 161.637 46.8481 161.679 46.9314 161.762C46.9314 161.762 46.9731 161.762 47.0148 161.804C47.0982 161.804 47.1398 161.887 47.2232 161.887C47.2232 161.887 47.2649 161.887 47.3066 161.887C47.3899 161.887 47.5149 161.929 47.5983 161.929C47.5983 161.929 47.7234 161.929 47.8067 161.929C47.8067 161.929 47.8484 161.929 47.8901 161.929C47.9317 161.929 47.9734 161.929 48.0568 161.887L74.0649 151.35V375.668C74.0649 376.335 74.6067 376.876 75.2319 376.876C75.3153 376.876 75.3986 376.876 75.5237 376.876C75.607 376.876 75.6904 376.918 75.8154 376.918H325.685C326.352 376.918 326.894 376.376 326.894 375.71V151.392L352.902 161.929C352.943 161.929 352.985 161.929 353.069 161.971H353.11C353.194 161.971 353.235 161.971 353.319 161.971C353.319 161.971 353.527 161.971 353.61 161.929C353.61 161.929 353.652 161.929 353.694 161.929C353.777 161.929 353.86 161.887 353.902 161.846C353.902 161.846 353.944 161.846 353.985 161.804C354.069 161.762 354.152 161.679 354.194 161.596L398.583 107.12C398.583 107.12 398.624 107.036 398.666 106.995C398.666 106.995 398.666 106.953 398.708 106.911H398.791ZM155.882 15.993C168.511 20.1579 184.224 22.4485 200.521 22.4485C216.818 22.4485 232.573 20.1579 245.16 16.0347C242.784 21.324 238.95 26.1969 233.948 30.2784C224.987 37.5252 213.15 41.5235 200.563 41.5235C187.975 41.5235 176.138 37.5252 167.177 30.2784C162.134 26.1969 158.341 21.324 155.965 16.0347L155.882 15.993Z" fill="#DEE3E3" stroke="#717171" stroke-width="4" stroke-miterlimit="10"/>
<path d="M201.604 52.8101V50.8943C200.937 50.8943 200.312 50.8943 199.687 50.8943V52.8101C199.937 52.8101 200.229 52.8101 200.479 52.8101C200.854 52.8101 201.229 52.8101 201.604 52.8101Z" fill="black"/>
<path d="M233.823 41.8149C233.281 42.1481 232.739 42.4397 232.197 42.7729L233.156 44.4388C233.698 44.1056 234.281 43.7724 234.823 43.4392L233.823 41.8149Z" fill="black"/>
<path d="M180.556 49.8945C181.181 50.1028 181.807 50.2694 182.432 50.436L182.932 48.6034C182.307 48.4368 181.723 48.2703 181.098 48.062L180.556 49.8945Z" fill="black"/>
<path d="M194.06 50.6028C193.435 50.5611 192.81 50.4778 192.185 50.3945L191.935 52.2687C192.56 52.352 193.227 52.4353 193.852 52.4769L194.019 50.5611L194.06 50.6028Z" fill="black"/>
<path d="M184.307 50.8942C184.932 51.0608 185.558 51.1857 186.183 51.3107L186.6 49.4365C185.974 49.3116 185.391 49.145 184.766 49.02L184.307 50.8525V50.8942Z" fill="black"/>
<path d="M205.356 50.7693C204.73 50.8109 204.105 50.8526 203.48 50.8942L203.563 52.8101C204.189 52.8101 204.855 52.7268 205.481 52.6851L205.356 50.7693Z" fill="black"/>
<path d="M190.309 50.1445C189.684 50.0612 189.059 49.9362 188.434 49.8113L188.1 51.6855C188.725 51.8104 189.392 51.8937 190.017 52.0186L190.309 50.1445Z" fill="black"/>
<path d="M197.812 50.8526C197.186 50.8526 196.561 50.8109 195.936 50.7693L195.811 52.6851C196.436 52.7268 197.103 52.7684 197.77 52.7684L197.853 50.8526H197.812Z" fill="black"/>
<path d="M227.154 45.3549C226.571 45.6048 226.029 45.8547 225.445 46.1045L226.154 47.8538C226.737 47.6039 227.363 47.354 227.946 47.0625L227.154 45.3132V45.3549Z" fill="black"/>
<path d="M230.53 43.689C229.988 43.9805 229.405 44.272 228.863 44.5219L229.696 46.2295C230.28 45.938 230.863 45.6464 231.447 45.3549L230.572 43.689H230.53Z" fill="black"/>
<path d="M223.694 46.7709C223.111 46.9791 222.527 47.1874 221.944 47.3956L222.569 49.1865C223.194 48.9783 223.778 48.77 224.403 48.5201L223.736 46.7292L223.694 46.7709Z" fill="black"/>
<path d="M210.982 50.103L211.274 51.9771C211.899 51.8938 212.566 51.7689 213.191 51.644L212.858 49.7698C212.233 49.8947 211.608 49.978 211.024 50.103H210.982Z" fill="black"/>
<path d="M236.949 39.7742C236.449 40.149 235.907 40.4822 235.407 40.857L236.449 42.4397C236.991 42.0648 237.532 41.7316 238.033 41.3568L236.949 39.8158V39.7742Z" fill="black"/>
<path d="M214.65 49.4366L215.067 51.3108C215.692 51.1858 216.317 51.0192 216.942 50.8943L216.484 49.0618C215.859 49.2284 215.275 49.3533 214.65 49.4783V49.4366Z" fill="black"/>
<path d="M218.318 48.5202L218.818 50.3527C219.443 50.1861 220.068 50.0195 220.694 49.8113L220.11 47.9788C219.527 48.187 218.901 48.3536 218.318 48.5202Z" fill="black"/>
<path d="M207.231 50.6028L207.398 52.4769C208.023 52.4353 208.69 52.352 209.315 52.2687L209.065 50.3945C208.44 50.4778 207.815 50.5195 207.189 50.6028H207.231Z" fill="black"/>
<path d="M144.045 9.4541L142.169 9.78729C142.294 10.412 142.419 11.0784 142.544 11.7031L144.42 11.3283C144.295 10.7036 144.17 10.1205 144.086 9.49575L144.045 9.4541Z" fill="black"/>
<path d="M145.379 14.91C145.212 14.3269 145.045 13.7022 144.878 13.1191L143.044 13.5773C143.211 14.202 143.378 14.8267 143.586 15.4514L145.42 14.91H145.379Z" fill="black"/>
<path d="M147.379 20.1577L145.628 20.949C145.878 21.5321 146.17 22.1152 146.462 22.6983L148.171 21.8236C147.879 21.2822 147.629 20.6991 147.379 20.1577Z" fill="black"/>
<path d="M151.047 26.6548L149.463 27.7376C149.838 28.2791 150.213 28.8205 150.588 29.3203L152.13 28.1958C151.755 27.696 151.38 27.1962 151.047 26.6548Z" fill="black"/>
<path d="M258.039 13.369L256.205 12.9109C256.038 13.494 255.871 14.1187 255.705 14.7018L257.539 15.2432C257.705 14.6185 257.914 13.9937 258.039 13.369Z" fill="black"/>
<path d="M176.847 48.6452C177.472 48.8535 178.055 49.1034 178.681 49.3116L179.306 47.5207C178.722 47.3125 178.139 47.1042 177.514 46.896L176.847 48.6869V48.6452Z" fill="black"/>
<path d="M148.379 26.1133L150.005 25.1138C149.671 24.5724 149.338 24.0309 149.046 23.4895L147.379 24.4474C147.671 24.9888 148.004 25.5719 148.379 26.1133Z" fill="black"/>
<path d="M144.836 19.1582L146.587 18.4502C146.337 17.8671 146.129 17.284 145.92 16.7009L144.128 17.3257C144.336 17.9087 144.586 18.5335 144.836 19.1582Z" fill="black"/>
<path d="M169.761 45.4799C170.345 45.7714 170.928 46.063 171.512 46.3545L172.345 44.6469C171.762 44.397 171.22 44.1055 170.678 43.814L169.803 45.5215L169.761 45.4799Z" fill="black"/>
<path d="M166.385 43.564C166.927 43.8972 167.51 44.2304 168.052 44.5635L168.969 42.8976C168.427 42.6061 167.885 42.2729 167.344 41.9397L166.343 43.564H166.385Z" fill="black"/>
<path d="M173.262 47.1875C173.846 47.4374 174.429 47.6872 175.055 47.9371L175.763 46.1879C175.18 45.938 174.596 45.6881 174.013 45.4382L173.221 47.1875H173.262Z" fill="black"/>
<path d="M161.217 37.6084L160.008 39.0661C160.508 39.4826 161.008 39.8574 161.55 40.2739L162.717 38.7746C162.217 38.3997 161.717 38.0249 161.217 37.6084Z" fill="black"/>
<path d="M154.34 33.8183C154.757 34.2764 155.257 34.7762 155.715 35.2343L157.049 33.9016C156.591 33.4435 156.174 32.9853 155.757 32.5688L154.382 33.8599L154.34 33.8183Z" fill="black"/>
<path d="M164.217 39.8989L163.134 41.4399C163.676 41.8147 164.217 42.1896 164.759 42.5228L165.801 40.9401C165.259 40.6069 164.759 40.2321 164.259 39.8989H164.217Z" fill="black"/>
<path d="M153.256 29.6952L151.755 30.8614C152.172 31.3611 152.589 31.8609 153.006 32.3607L154.465 31.1113C154.048 30.6531 153.673 30.1533 153.256 29.6536V29.6952Z" fill="black"/>
<path d="M159.758 36.4006C159.3 35.9841 158.799 35.5676 158.341 35.1511L157.049 36.5672C157.507 36.9837 158.007 37.4418 158.508 37.8583L159.758 36.4006Z" fill="black"/>
<path d="M247.869 29.4871C247.494 29.9868 247.077 30.445 246.66 30.9448L248.119 32.1942C248.536 31.6944 248.953 31.1946 249.369 30.6949L247.869 29.5287V29.4871Z" fill="black"/>
<path d="M246.827 33.6517L245.451 32.3606C245.034 32.8187 244.576 33.2769 244.159 33.6933L245.493 35.0261C245.951 34.568 246.41 34.1098 246.827 33.61V33.6517Z" fill="black"/>
<path d="M248.994 28.0294L250.536 29.1539C250.911 28.6124 251.287 28.071 251.662 27.5712L250.078 26.53C249.744 27.0298 249.369 27.5712 248.994 28.071V28.0294Z" fill="black"/>
<path d="M255.121 16.4927C254.913 17.0758 254.704 17.6588 254.454 18.2419L256.205 18.9499C256.455 18.3252 256.663 17.7421 256.913 17.1174L255.121 16.4927Z" fill="black"/>
<path d="M256.622 11.0784L258.497 11.4532C258.622 10.8285 258.747 10.1621 258.872 9.53739L256.997 9.24585C256.913 9.87057 256.788 10.4953 256.663 11.0784H256.622Z" fill="black"/>
<path d="M252.912 21.657L254.621 22.49C254.913 21.9069 255.204 21.3239 255.455 20.7408L253.704 19.9495C253.454 20.4909 253.162 21.074 252.912 21.6154V21.657Z" fill="black"/>
<path d="M241.408 36.2756L242.659 37.6916C243.159 37.2751 243.617 36.817 244.117 36.4005L242.825 35.0261C242.367 35.4426 241.908 35.8591 241.45 36.2756H241.408Z" fill="black"/>
<path d="M252.037 23.2812C251.745 23.8227 251.412 24.3641 251.078 24.9055L252.704 25.9051C253.037 25.3637 253.37 24.7806 253.704 24.2392L252.037 23.3229V23.2812Z" fill="black"/>
<path d="M238.491 38.6496L239.658 40.1489C240.158 39.7741 240.7 39.3576 241.2 38.9411L239.991 37.4834C239.491 37.8582 238.991 38.2747 238.532 38.6496H238.491Z" fill="black"/>
<path d="M43.2093 138.247L41.7231 139.457L42.9081 140.91L44.3943 139.7L43.2093 138.247Z" fill="black"/>
<path d="M17.2529 106.337L15.7661 107.547L16.9503 109L18.4371 107.791L17.2529 106.337Z" fill="black"/>
<path d="M40.8767 135.336L39.3896 136.545L40.5736 137.999L42.0606 136.789L40.8767 135.336Z" fill="black"/>
<path d="M36.1189 129.553L34.6318 130.762L35.8157 132.216L37.3028 131.006L36.1189 129.553Z" fill="black"/>
<path d="M38.4985 132.429L37.0117 133.638L38.1959 135.092L39.6827 133.882L38.4985 132.429Z" fill="black"/>
<path d="M55.0733 152.737L53.5869 153.948L54.7716 155.401L56.258 154.19L55.0733 152.737Z" fill="black"/>
<path d="M47.9359 144.051L46.4497 145.261L47.6346 146.714L49.1208 145.504L47.9359 144.051Z" fill="black"/>
<path d="M52.6627 149.853L51.1748 151.061L52.3577 152.515L53.8456 151.307L52.6627 149.853Z" fill="black"/>
<path d="M50.2606 146.944L48.7744 148.155L49.9593 149.608L51.4455 148.397L50.2606 146.944Z" fill="black"/>
<path d="M45.5752 141.123L44.0884 142.332L45.2725 143.786L46.7594 142.576L45.5752 141.123Z" fill="black"/>
<path d="M24.3487 115.07L22.8608 116.279L24.0437 117.733L25.5316 116.525L24.3487 115.07Z" fill="black"/>
<path d="M26.6605 117.944L25.1743 119.155L26.3592 120.608L27.8454 119.397L26.6605 117.944Z" fill="black"/>
<path d="M14.8484 103.423L13.3613 104.632L14.5452 106.086L16.0323 104.877L14.8484 103.423Z" fill="black"/>
<path d="M19.6067 109.206L18.1196 110.415L19.3035 111.869L20.7906 110.66L19.6067 109.206Z" fill="black"/>
<path d="M21.934 112.14L20.4478 113.351L21.6327 114.804L23.1189 113.593L21.934 112.14Z" fill="black"/>
<path d="M12.4896 100.558L11.0034 101.769L12.1883 103.222L13.6745 102.011L12.4896 100.558Z" fill="black"/>
<path d="M31.4219 123.693L29.9351 124.903L31.1192 126.356L32.606 125.146L31.4219 123.693Z" fill="black"/>
<path d="M29.0116 120.829L27.5254 122.039L28.7103 123.492L30.1965 122.282L29.0116 120.829Z" fill="black"/>
<path d="M33.7386 126.633L32.2524 127.843L33.4374 129.296L34.9236 128.085L33.7386 126.633Z" fill="black"/>
<path d="M110.868 365.381H108.992V367.297H110.868V365.381Z" fill="black"/>
<path d="M114.619 365.381H112.743V367.297H114.619V365.381Z" fill="black"/>
<path d="M103.282 365.381H101.406V367.297H103.282V365.381Z" fill="black"/>
<path d="M107.075 365.381H105.199V367.297H107.075V365.381Z" fill="black"/>
<path d="M118.412 365.381H116.536V367.297H118.412V365.381Z" fill="black"/>
<path d="M122.205 365.381H120.329V367.297H122.205V365.381Z" fill="black"/>
<path d="M137.335 365.381H135.459V367.297H137.335V365.381Z" fill="black"/>
<path d="M141.127 365.381H139.251V367.297H141.127V365.381Z" fill="black"/>
<path d="M129.79 365.381H127.915V367.297H129.79V365.381Z" fill="black"/>
<path d="M376.747 115.016L375.563 116.47L377.05 117.679L378.234 116.226L376.747 115.016Z" fill="black"/>
<path d="M379.084 112.158L377.9 113.612L379.387 114.821L380.571 113.368L379.084 112.158Z" fill="black"/>
<path d="M360.201 135.313L359.017 136.767L360.503 137.976L361.688 136.523L360.201 135.313Z" fill="black"/>
<path d="M386.206 103.43L385.022 104.884L386.509 106.093L387.693 104.64L386.206 103.43Z" fill="black"/>
<path d="M383.811 106.294L382.626 107.748L384.113 108.957L385.297 107.504L383.811 106.294Z" fill="black"/>
<path d="M381.447 109.227L380.263 110.68L381.75 111.889L382.934 110.436L381.447 109.227Z" fill="black"/>
<path d="M369.651 123.751L368.466 125.203L369.952 126.414L371.137 124.961L369.651 123.751Z" fill="black"/>
<path d="M388.501 100.451L387.316 101.903L388.803 103.114L389.988 101.661L388.501 100.451Z" fill="black"/>
<path d="M374.403 117.923L373.217 119.375L374.702 120.586L375.888 119.135L374.403 117.923Z" fill="black"/>
<path d="M372.002 120.788L370.816 122.24L372.301 123.451L373.487 122L372.002 120.788Z" fill="black"/>
<path d="M125.998 365.381H124.122V367.297H125.998V365.381Z" fill="black"/>
<path d="M197.895 365.381H196.02V367.297H197.895V365.381Z" fill="black"/>
<path d="M254.704 365.381H252.829V367.297H254.704V365.381Z" fill="black"/>
<path d="M194.144 365.381H192.268V367.297H194.144V365.381Z" fill="black"/>
<path d="M201.688 365.381H199.812V367.297H201.688V365.381Z" fill="black"/>
<path d="M205.481 365.381H203.605V367.297H205.481V365.381Z" fill="black"/>
<path d="M190.351 365.381H188.475V367.297H190.351V365.381Z" fill="black"/>
<path d="M186.558 365.381H184.683V367.297H186.558V365.381Z" fill="black"/>
<path d="M182.765 365.381H180.89V367.297H182.765V365.381Z" fill="black"/>
<path d="M258.497 365.381H256.622V367.297H258.497V365.381Z" fill="black"/>
<path d="M209.274 365.381H207.398V367.297H209.274V365.381Z" fill="black"/>
<path d="M243.326 365.381H241.45V367.297H243.326V365.381Z" fill="black"/>
<path d="M224.403 365.381H222.527V367.297H224.403V365.381Z" fill="black"/>
<path d="M228.196 365.381H226.32V367.297H228.196V365.381Z" fill="black"/>
<path d="M250.911 365.381H249.036V367.297H250.911V365.381Z" fill="black"/>
<path d="M231.989 365.381H230.113V367.297H231.989V365.381Z" fill="black"/>
<path d="M239.574 365.381H237.699V367.297H239.574V365.381Z" fill="black"/>
<path d="M262.248 365.381H260.373V367.297H262.248V365.381Z" fill="black"/>
<path d="M220.61 365.381H218.735V367.297H220.61V365.381Z" fill="black"/>
<path d="M216.859 365.381H214.983V367.297H216.859V365.381Z" fill="black"/>
<path d="M213.066 365.381H211.19V367.297H213.066V365.381Z" fill="black"/>
<path d="M247.119 365.381H245.243V367.297H247.119V365.381Z" fill="black"/>
<path d="M281.213 365.381H279.337V367.297H281.213V365.381Z" fill="black"/>
<path d="M178.972 365.381H177.097V367.297H178.972V365.381Z" fill="black"/>
<path d="M152.505 365.381H150.63V367.297H152.505V365.381Z" fill="black"/>
<path d="M303.928 365.381H302.011V367.297H303.928V365.381Z" fill="black"/>
<path d="M288.756 365.381H286.881V367.297H288.756V365.381Z" fill="black"/>
<path d="M156.257 365.381H154.381V367.297H156.257V365.381Z" fill="black"/>
<path d="M296.342 365.381H294.467V367.297H296.342V365.381Z" fill="black"/>
<path d="M144.92 365.381H143.044V367.297H144.92V365.381Z" fill="black"/>
<path d="M300.135 365.381H298.259V367.297H300.135V365.381Z" fill="black"/>
<path d="M284.963 365.381H283.088V367.297H284.963V365.381Z" fill="black"/>
<path d="M148.755 365.381H146.837V367.297H148.755V365.381Z" fill="black"/>
<path d="M292.549 365.381H290.674V367.297H292.549V365.381Z" fill="black"/>
<path d="M269.834 365.381H267.958V367.297H269.834V365.381Z" fill="black"/>
<path d="M273.627 365.381H271.751V367.297H273.627V365.381Z" fill="black"/>
<path d="M171.428 365.381H169.553V367.297H171.428V365.381Z" fill="black"/>
<path d="M160.05 365.381H158.174V367.297H160.05V365.381Z" fill="black"/>
<path d="M175.221 365.381H173.346V367.297H175.221V365.381Z" fill="black"/>
<path d="M266.041 365.381H264.166V367.297H266.041V365.381Z" fill="black"/>
<path d="M167.635 365.381H165.76V367.297H167.635V365.381Z" fill="black"/>
<path d="M163.842 365.381H161.967V367.297H163.842V365.381Z" fill="black"/>
<path d="M277.42 365.381H275.544V367.297H277.42V365.381Z" fill="black"/>
<path d="M355.474 141.136L354.29 142.589L355.777 143.799L356.961 142.345L355.474 141.136Z" fill="black"/>
<path d="M357.837 138.245L356.653 139.699L358.14 140.908L359.324 139.455L357.837 138.245Z" fill="black"/>
<path d="M364.914 129.557L363.729 131.01L365.216 132.22L366.401 130.767L364.914 129.557Z" fill="black"/>
<path d="M362.549 132.447L361.364 133.9L362.85 135.11L364.035 133.658L362.549 132.447Z" fill="black"/>
<path d="M367.28 126.624L366.095 128.077L367.581 129.287L368.766 127.835L367.28 126.624Z" fill="black"/>
<path d="M348.378 149.873L347.194 151.326L348.681 152.536L349.865 151.082L348.378 149.873Z" fill="black"/>
<path d="M345.982 152.737L344.798 154.19L346.285 155.4L347.469 153.947L345.982 152.737Z" fill="black"/>
<path d="M353.079 144.041L351.895 145.495L353.381 146.704L354.566 145.251L353.079 144.041Z" fill="black"/>
<path d="M350.742 146.941L349.558 148.394L351.044 149.604L352.229 148.15L350.742 146.941Z" fill="black"/>
<path d="M133.542 365.381H131.666V367.297H133.542V365.381Z" fill="black"/>
<path d="M99.4894 365.381H97.6138V367.297H99.4894V365.381Z" fill="black"/>
<path d="M315.306 365.381H313.389V367.297H315.306V365.381Z" fill="black"/>
<path d="M322.851 365.381H320.975V367.297H322.851V365.381Z" fill="black"/>
<path d="M319.058 365.381H317.182V367.297H319.058V365.381Z" fill="black"/>
<path d="M235.782 365.381H233.906V367.297H235.782V365.381Z" fill="black"/>
<path d="M307.679 365.381H305.804V367.297H307.679V365.381Z" fill="black"/>
<path d="M91.9034 365.381H90.0278V367.297H91.9034V365.381Z" fill="black"/>
<path d="M88.1524 365.381H86.2769V367.297H88.1524V365.381Z" fill="black"/>
<path d="M95.6964 365.381H93.8208V367.297H95.6964V365.381Z" fill="black"/>
<path d="M80.5665 365.381H78.6909V367.297H80.5665V365.381Z" fill="black"/>
<path d="M84.3595 365.381H82.4839V367.297H84.3595V365.381Z" fill="black"/>
<path d="M311.472 365.381H309.596V367.297H311.472V365.381Z" fill="black"/>
</g>
<defs>
<clipPath id="clip0_20_153">
<rect width="401" height="379" fill="white"/>
</clipPath>
</defs>
</svg>
