<svg width="559" height="512" viewBox="0 0 559 512" fill="none" xmlns="http://www.w3.org/2000/svg">
<g filter="url(#filter0_d_20_3)">
<path d="M421.238 254.91C420.081 253.807 417.162 253.86 415.866 254.691C414.264 255.714 403.753 285.305 401.772 289.944C390.796 315.613 379.515 333.239 378.165 362.717C377.175 384.358 383.902 402.496 386.741 423.32C387.546 429.229 387.752 435.244 388.755 441.126L388.184 441.837C317.057 460.74 241.203 460.747 170.082 441.837L169.617 441.206C170.175 424.35 174.995 408.206 177.88 391.775C182.288 366.658 179.689 341.408 169.757 317.899C167.323 312.143 163.853 306.773 161.353 301.044C154.752 285.949 148.862 270.556 142.892 255.202C139.874 252.783 137.268 254.219 135.872 257.389C130.613 269.313 126.93 286.069 122.256 298.943C114.259 321.003 103.596 341.986 97.6987 364.784C93.3177 381.719 90.9377 396.428 85.0276 413.264C75.614 440.096 63.8271 466.117 53.2435 492.484C52.4324 494.278 51.1493 494.75 49.4142 495.302C45.7644 496.459 38.0993 497.236 34.1836 497.356C26.3722 497.595 18.1552 496.465 10.623 494.604C14.3459 454.04 19.804 413.27 29.4901 373.697C35.6196 348.666 44.2421 329.81 53.1105 306.254C61.8992 282.912 65.5024 260.633 71.2396 236.645C73.6728 226.483 77.2362 216.593 79.4832 206.337C86.7295 173.257 86.9954 116.941 120.462 98.4237C134.987 90.388 151.109 88.1747 166.778 83.582C181.683 79.2085 190.226 74.9946 203.289 66.9124C213.7 60.4719 227.76 53.5595 229.768 40.2133L231.357 10.8954C231.836 10.1642 243.091 8.35639 244.906 8.15699C265.348 5.91046 299.12 5.43856 319.164 9.0144C321.278 9.39325 326.55 9.99809 327.009 12.4706L328.637 40.7516C329.827 46.5275 332.832 51.5523 337.326 55.3275C347.691 64.0278 369.576 76.417 382.327 80.7904C404.697 88.4605 436.083 90.4611 451.586 109.916C472.009 135.531 472.042 175.583 478.783 206.35C481.342 218.028 485.291 229.314 488.097 240.906C491.241 253.933 493.222 267.179 496.719 280.14C505.023 310.914 519.695 337.912 527.726 369.443C538.057 410.014 543.561 451.933 547.63 493.587C547.424 494.405 546.726 494.438 546.114 494.737C540.237 497.595 513.419 497.509 507.449 494.724C506.286 494.179 505.548 493.747 505.023 492.497C493.741 463.485 479.853 434.546 470.287 404.929C464.842 388.067 462.741 370.852 457.476 353.93C452.191 336.948 444.187 320.943 438.004 304.274C431.968 287.983 427.154 271.24 421.231 254.917L421.238 254.91Z" fill="#EFF0F3"/>
<path d="M244.742 6.66553C265.261 4.41069 299.19 3.92709 319.428 7.5376H319.429C320.39 7.70987 322.394 7.98113 324.15 8.5249C325.036 8.79915 325.969 9.17316 326.741 9.7085C327.515 10.245 328.27 11.0469 328.483 12.1968L328.501 12.2896L328.506 12.3843L330.128 40.5474C331.263 45.95 334.08 50.6414 338.29 54.1782C343.372 58.4442 351.347 63.6655 359.671 68.3765C367.995 73.0875 376.563 77.2278 382.813 79.3716C388.335 81.2648 394.43 82.8136 400.767 84.3853C407.082 85.9516 413.635 87.5397 419.975 89.5005C432.633 93.4154 444.718 98.8909 452.759 108.981L453.244 109.597C463.358 122.596 468.422 139.046 471.786 155.908C473.497 164.481 474.776 173.212 476.045 181.683C477.316 190.171 478.575 198.394 480.248 206.029C481.516 211.814 483.13 217.513 484.788 223.244C486.235 228.246 487.718 233.278 489.012 238.368L489.555 240.553C491.135 247.101 492.424 253.705 493.746 260.25C495.071 266.809 496.432 273.32 498.167 279.75C502.293 295.041 508.004 309.404 513.721 323.959C519.428 338.49 525.137 353.204 529.179 369.073C539.538 409.753 545.052 451.761 549.123 493.441L549.148 493.701L549.084 493.954C548.858 494.852 548.301 495.374 547.73 495.679C547.492 495.806 547.252 495.896 547.106 495.951C546.932 496.016 546.847 496.048 546.772 496.084L546.77 496.086C545.032 496.931 542.005 497.476 538.585 497.825C535.088 498.181 530.945 498.352 526.814 498.346C522.684 498.34 518.536 498.156 515.029 497.794C511.594 497.44 508.564 496.899 506.815 496.083L506.812 496.083C506.228 495.809 505.592 495.494 505.031 495.023C504.434 494.521 503.984 493.898 503.64 493.079L503.632 493.06L503.625 493.041C492.407 464.193 478.438 435.043 468.859 405.39C466.111 396.88 464.211 388.291 462.349 379.772C460.482 371.232 458.654 362.763 456.044 354.375C453.424 345.956 450.124 337.765 446.692 329.564C443.268 321.382 439.703 313.168 436.598 304.795C433.568 296.619 430.847 288.334 428.149 280.074C425.496 271.947 422.863 263.847 419.972 255.849C419.696 255.717 419.226 255.588 418.574 255.575C417.817 255.56 417.173 255.708 416.816 255.876C416.798 255.904 416.775 255.937 416.75 255.979C416.619 256.196 416.445 256.523 416.231 256.963C415.806 257.84 415.27 259.067 414.652 260.553C413.42 263.521 411.9 267.443 410.363 271.494C407.309 279.543 404.158 288.176 403.151 290.533V290.534C392.087 316.41 380.997 333.663 379.664 362.786C379.177 373.431 380.585 383.241 382.489 393.039C384.265 402.176 386.5 411.42 387.948 421.163L388.228 423.118L388.373 424.242C388.699 426.867 388.926 429.505 389.167 432.094C389.444 435.069 389.743 437.994 390.234 440.874L390.348 441.54L389.925 442.066L389.353 442.777L389.045 443.161L388.569 443.287C317.19 462.256 241.07 462.263 169.697 443.287L169.188 443.152L168.875 442.727L168.409 442.096L168.101 441.676L168.118 441.156C168.401 432.606 169.764 424.263 171.405 416.038C173.057 407.759 174.963 399.721 176.403 391.516L176.603 390.352C180.681 365.893 178.037 341.353 168.375 318.483C167.189 315.677 165.745 312.953 164.257 310.168C162.78 307.403 161.257 304.573 159.979 301.643V301.642C153.419 286.644 147.561 271.353 141.648 256.144C140.591 255.398 139.829 255.405 139.302 255.603C138.624 255.858 137.857 256.602 137.244 257.994V257.995C134.658 263.858 132.447 270.943 130.283 278.237C128.131 285.492 126.022 292.962 123.666 299.454C119.655 310.519 114.965 321.342 110.58 332.151C106.184 342.988 102.074 353.859 99.1514 365.16C94.8131 381.93 92.3784 396.853 86.4434 413.76C77.0169 440.629 65.1848 466.762 54.6357 493.042L54.624 493.073L54.6104 493.102C54.0887 494.256 53.3754 495.049 52.4873 495.621C51.6571 496.155 50.7172 496.462 49.8691 496.732H49.8672C46.2529 497.877 39.1396 498.635 35.0127 498.825L34.2295 498.855C26.2517 499.099 17.8958 497.946 10.2637 496.06L9.01172 495.751L9.12891 494.467C12.8552 453.866 18.3224 413.014 28.0332 373.34C34.1912 348.193 42.8774 329.178 51.707 305.726C60.4515 282.501 64.0124 260.416 69.7812 236.296L70.2539 234.376C71.3857 229.906 72.7043 225.488 73.9922 221.103C75.4684 216.077 76.9066 211.086 78.0176 206.016C79.816 197.806 81.182 188.151 82.7539 177.897C84.3212 167.673 86.0892 156.893 88.6855 146.554C93.8613 125.945 102.425 106.689 119.735 97.1108L120.432 96.731C127.637 92.8473 135.189 90.3431 142.796 88.2651C150.266 86.2246 157.517 84.6572 164.882 82.5679L166.356 82.1421C181.106 77.8143 189.525 73.6645 202.5 65.6372C207.805 62.3556 213.761 59.1109 218.723 54.9976C223.63 50.9286 227.332 46.1828 228.274 40.0513L229.859 10.814L229.881 10.4116L230.103 10.0737C230.266 9.82338 230.465 9.67006 230.57 9.59619C230.691 9.51107 230.811 9.44636 230.908 9.39893C231.102 9.30404 231.319 9.22311 231.525 9.15381C231.945 9.01305 232.481 8.8693 233.071 8.72803C234.261 8.44328 235.801 8.13685 237.36 7.85107C240.469 7.28136 243.779 6.77131 244.742 6.66553Z" stroke="#BEBEBE" stroke-width="3"/>
</g>
<defs>
<filter id="filter0_d_20_3" x="-9.77516e-05" y="-9.77516e-05" width="558.066" height="511.788" filterUnits="userSpaceOnUse" color-interpolation-filters="sRGB">
<feFlood flood-opacity="0" result="BackgroundImageFix"/>
<feColorMatrix in="SourceAlpha" type="matrix" values="0 0 0 0 0 0 0 0 0 0 0 0 0 0 0 0 0 0 127 0" result="hardAlpha"/>
<feOffset dy="4"/>
<feGaussianBlur stdDeviation="3.7"/>
<feComposite in2="hardAlpha" operator="out"/>
<feColorMatrix type="matrix" values="0 0 0 0 0.399395 0 0 0 0 0.399395 0 0 0 0 0.399395 0 0 0 0.25 0"/>
<feBlend mode="normal" in2="BackgroundImageFix" result="effect1_dropShadow_20_3"/>
<feBlend mode="normal" in="SourceGraphic" in2="effect1_dropShadow_20_3" result="shape"/>
</filter>
</defs>
</svg>
